<?xml version="1.0" encoding="UTF-8"?>
<svg width="30px" height="30px" viewBox="0 0 30 30" version="1.1" xmlns="http://www.w3.org/2000/svg" xmlns:xlink="http://www.w3.org/1999/xlink">
    <title>Group 6</title>
    <defs>
        <linearGradient x1="25.4471496%" y1="28.123635%" x2="87.5369295%" y2="96.6642722%" id="linearGradient-1">
            <stop stop-color="#6B32FF" offset="0%"></stop>
            <stop stop-color="#3023AE" offset="25.0271219%"></stop>
            <stop stop-color="#C96DD8" offset="100%"></stop>
        </linearGradient>
    </defs>
    <g id="Page-1" stroke="none" stroke-width="1" fill="none" fill-rule="evenodd">
        <g id="2.1-Desktop" transform="translate(-92, -349)">
            <g id="Group-10" transform="translate(62, 159)">
                <g id="Group-6" transform="translate(30, 190)">
                    <rect id="Rectangle-8-Copy" stroke="#DCDEE4" fill="#FFFFFF" x="0.5" y="0.5" width="29" height="29" rx="14.5"></rect>
                    <path d="M21.1726185,17.8240996 C20.9653003,17.5696154 20.6918724,17.4096567 20.401627,17.3439334 C19.9118923,17.2332671 19.4983192,16.9067773 19.2451881,16.4731973 L19.1801415,16.3618544 C18.9235309,15.9224753 18.866603,15.3987192 19.0029787,14.9085979 C19.1327821,14.4425428 19.0144803,13.9219762 18.64788,13.5553759 C18.459119,13.3666149 18.2294743,13.2436738 17.9873615,13.1865526 C17.496177,13.0706671 17.0748718,12.7568387 16.820291,12.320939 L16.7541811,12.2076631 C16.4981505,11.7692505 16.4399661,11.2466542 16.5760518,10.7575961 C16.713974,10.2622556 16.5718958,9.70534786 16.1491408,9.33720113 C15.6304106,8.88535394 14.8412486,8.88796354 14.3251279,9.34290359 C13.7191211,9.87738808 13.6973744,10.8029258 14.259888,11.3655359 C14.448359,11.5539103 14.6774238,11.6767548 14.9190533,11.7340693 C15.4094645,11.8503414 15.8301899,12.1638799 16.0843841,12.5991996 L16.1527169,12.7163416 C16.4085543,13.1544642 16.466352,13.6765773 16.3310395,14.1655388 C16.2022027,14.6311105 16.3207944,15.150614 16.6867182,15.5166344 C16.8748026,15.7047188 17.1034808,15.8273699 17.3445304,15.8847811 C17.8341684,16.0015365 18.2542172,16.3148816 18.5081215,16.7496215 L18.5805137,16.8735291 C18.8366409,17.3123283 18.8940521,17.8352146 18.7582563,18.3248526 C18.6289362,18.7906177 18.7473347,19.310701 19.1135484,19.6769147 C19.6764485,20.2397182 20.6026627,20.2176816 21.1369539,19.6107082 C21.5796192,19.1078289 21.5957601,18.3435064 21.1726185,17.8240996 Z M16.318958,17.8242929 C16.1124131,17.5705819 15.840145,17.4107198 15.5508661,17.34461 C15.0599716,17.2324939 14.6451421,16.9058108 14.3914311,16.4709743 L14.3326668,16.3700698 C14.0728667,15.9248916 14.0181618,15.395433 14.1522178,14.8977729 C14.2850174,14.4052353 14.1418761,13.8538367 13.7225039,13.4883962 C13.203677,13.0364524 12.4144184,13.0389653 11.8983944,13.4940987 C11.2922909,14.0284865 11.2705442,14.9540242 11.8330577,15.5166344 C12.018146,15.7017226 12.2424748,15.8235039 12.4793684,15.8820749 C12.976352,16.0049193 13.4046161,16.3190377 13.6625798,16.7612197 L13.7214407,16.8623175 C13.9813374,17.3078823 14.0353658,17.8375342 13.9015031,18.3356776 C13.7771122,18.7987364 13.8964772,19.3135039 14.259888,19.6769147 C14.8226914,20.2397182 15.7489057,20.2176816 16.2831969,19.6107082 C16.7258621,19.1078289 16.7420996,18.3436997 16.318958,17.8242929 Z M11.7735202,18.6963822 C11.7735202,19.4622511 11.152629,20.0831423 10.3867601,20.0831423 C9.6208912,20.0831423 9,19.4622511 9,18.6963822 C9,17.9304166 9.6208912,17.309622 10.3867601,17.309622 C11.152629,17.309622 11.7735202,17.9304166 11.7735202,18.6963822 L11.7735202,18.6963822 Z" id="Fill-1" fill="url(#linearGradient-1)"></path>
                </g>
            </g>
        </g>
    </g>
</svg>