
<svg width="16px" height="16px" viewBox="0 0 16 16" version="1.1" xmlns="http://www.w3.org/2000/svg" xmlns:xlink="http://www.w3.org/1999/xlink">
    <g id="Page-1" stroke="none" stroke-width="1" fill="none" fill-rule="evenodd">
        <g id="2.1-Desktop" transform="translate(-1132, -58)" fill="#FFFFFF" fill-rule="nonzero">
            <g id="New-campaign" transform="translate(1111, 42)">
                <path d="M29,16 C33.4,16 37,19.6 37,24 C37,28.4 33.4,32 29,32 C24.6,32 21,28.4 21,24 C21,19.6 24.6,16 29,16 Z M29,18 C25.7,18 23,20.7 23,24 C23,27.3 25.7,30 29,30 C32.3,30 35,27.3 35,24 C35,20.7 32.3,18 29,18 Z M30,20 L30,23 L33,23 L33,25 L30,25 L30,28 L28,28 L28,25 L25,25 L25,23 L28,23 L28,20 L30,20 Z" id="Combined-Shape"></path>
            </g>
        </g>
    </g>
</svg>