
<svg width="16px" height="16.0003475px" viewBox="0 0 16 16.0003475" version="1.1" xmlns="http://www.w3.org/2000/svg" xmlns:xlink="http://www.w3.org/1999/xlink">
    <g id="Page-1" stroke="none" stroke-width="1" fill="none" fill-rule="evenodd">
        <g id="2.1-Desktop" transform="translate(-818, -59)" fill="#8492A6">
            <g id="Search" transform="translate(801, 42)">
                <path d="M32.7963453,30.8290196 L29.7563123,27.7889866 C30.4860593,26.6891486 30.9131944,25.3722647 30.9131944,23.9565972 C30.9131944,20.1207295 27.7924649,17 23.9565972,17 C20.1207295,17 17,20.1207295 17,23.9565972 C17,27.7924649 20.1207295,30.9131944 23.9565972,30.9131944 C25.3722647,30.9131944 26.6891486,30.4860593 27.7889866,29.7563123 L30.8283239,32.7963453 C31.1003269,33.0683482 31.5406795,33.0683482 31.8119868,32.7963453 L32.7956496,31.8126824 C33.0676526,31.5406795 33.0683482,31.1003269 32.7963453,30.8290196 Z M18.3913194,23.9565972 C18.3913194,20.8880422 20.8880422,18.3913194 23.9565972,18.3913194 C27.0251522,18.3913194 29.521875,20.8880422 29.521875,23.9565972 C29.521875,27.0251522 27.0251522,29.521875 23.9565972,29.521875 C20.8880422,29.521875 18.3913194,27.0251522 18.3913194,23.9565972 Z" id="Shape"></path>
            </g>
        </g>
    </g>
</svg>